<svg width="21px" height="22px" viewBox="0 0 21 22" version="1.1" xmlns="http://www.w3.org/2000/svg" xmlns:xlink="http://www.w3.org/1999/xlink">
  <!-- Generator: Sketch 51 (57462) - http://www.bohemiancoding.com/sketch -->
  <desc>Created with Sketch.</desc>
  <defs></defs>
  <g id="Page-1" stroke="none" stroke-width="1" fill="none" fill-rule="evenodd">
    <g id="个人中心未激活" transform="translate(-41.000000, -503.000000)" fill="#FF6D4B" fill-rule="nonzero">
      <g id="shangpin-2" transform="translate(41.000000, 503.000000)">
        <path d="M15.2252076,7.0081579 C15.6414654,6.76638964 15.8511822,6.26992073 15.7389166,5.79203903 C15.626651,5.31415732 15.219665,4.97090916 14.7419893,4.95124003 C14.2643137,4.93157089 13.8319448,5.24025712 13.6828857,5.70737832 C13.5338267,6.17449953 13.7042743,6.68662237 14.1004033,6.9618421 C13.9709214,9.85078946 12.2977891,12.0421053 10.4208636,12.0421053 C8.54393798,12.0421053 6.87136871,9.85078948 6.74132378,6.96126316 C7.13745287,6.68604344 7.30790045,6.1739206 7.15884142,5.70679939 C7.00978239,5.23967819 6.57741347,4.93099195 6.09973784,4.95066107 C5.6220622,4.9703302 5.21507615,5.31357835 5.10281052,5.79146006 C4.99054489,6.26934176 5.20026169,6.76581067 5.61651955,7.00757894 C5.77020902,10.4633158 7.86275023,13.2 10.4208636,13.2 C12.9789769,13.2 15.0709551,10.4633158 15.2252076,7.0081579 Z M1.36669614,3.07073684 C1.55134867,1.37442106 3.01393197,0 4.6386492,0 L16.3517007,0 C17.9707883,0 19.4406901,1.3761579 19.6264686,3.07073684 L20.9944738,18.9292632 C21.103126,20.6255789 19.5966315,22 17.620624,22 L3.37985926,22 C1.41117038,22 -0.102642738,20.6238421 0.00544656323,18.9292632 L1.36669614,3.07073684 Z" id="形状"></path>
      </g>
    </g>
  </g>
</svg>
